<?xml version="1.0" standalone="no"?>
<!DOCTYPE svg PUBLIC "-//W3C//DTD SVG 1.1//EN" "http://www.w3.org/Graphics/SVG/1.1/DTD/svg11.dtd" >
<svg xmlns="http://www.w3.org/2000/svg">
<metadata>Generated by IcoMoon</metadata>
<defs>
<font id="icomoon" horiz-adv-x="1024">
<font-face units-per-em="1024" ascent="960" descent="-64" />
<missing-glyph horiz-adv-x="1024" />
<glyph unicode="&#x20;" horiz-adv-x="512" d="" />
<glyph unicode="&#xe900;" d="M246.35 775.583c-41.184 56.686-117.916 72.264-177.412 38.378-4.362-2.485-7.945-6.179-12.1-9.197-60.841-44.204-70.319-125.001-26.115-185.844 44.204-60.841 123.663-76.362 184.503-32.157 4.111 2.989 9.009 4.782 12.684 8.124 50.716 46.101 59.657 123.968 18.44 180.697z" />
<glyph unicode="&#xe901;" d="M230.476 597.303c-4.415-4.227-9.178-8.222-14.264-11.916-60.838-44.203-145.996-30.716-190.198 30.125-44.202 60.839-30.713 145.996 30.126 190.198 5.085 3.694 10.355 6.989 15.741 9.883-48.422-46.362-56.37-122.525-15.862-178.282s115.403-71.735 174.457-40.008z" />
<glyph unicode="&#xe902;" d="M136.146 628.598c36.981 0 66.961 29.979 66.961 66.96s-29.979 66.96-66.961 66.96c-36.981 0-66.96-29.979-66.96-66.96s29.979-66.96 66.96-66.96z" />
<glyph unicode="&#xe903;" d="M999.377 619.628c40.188 57.395 29.939 135.020-21.474 180.242-3.768 3.315-8.429 5.501-12.635 8.447-61.605 43.135-141.086 25.791-184.221-35.813s-31.941-141.786 29.664-184.921c4.164-2.915 7.456-6.961 11.812-9.349 60.097-32.946 136.634-16.046 176.854 41.392z" />
<glyph unicode="&#xe904;" d="M825.615 576.582c-5.435 2.799-10.763 6.002-15.91 9.607-61.601 43.135-76.574 128.040-33.439 189.642s128.042 76.574 189.645 33.439c5.148-3.604 9.98-7.516 14.469-11.665-59.599 30.691-134.205 13.409-173.733-43.046-39.532-56.453-30.255-132.468 18.969-177.977z" />
<glyph unicode="&#xe905;" d="M887.85 630.765c36.982 0 66.96 29.979 66.96 66.96s-29.979 66.96-66.96 66.96c-36.982 0-66.96-29.979-66.96-66.96s29.979-66.96 66.96-66.96z" />
<glyph unicode="&#xe906;" d="M741.825 171.025c0 120.659-93.415 219.502-211.867 228.149-5.579 0.408-9.142-0.334-14.823-0.334-126.343 0-226.617-101.719-226.617-228.060s100.312-227.292 226.653-227.292c5.046 0 7.944-1.060 12.906-0.738 119.343 7.729 213.749 106.978 213.749 228.274z" />
<glyph unicode="&#xe907;" glyph-name="chats" d="M998.206 265.465c-0.113 70.407-23.232 138.847-65.833 194.901-42.604 56.052-102.355 96.65-170.16 115.607-2.489 57.817-18.125 114.302-45.718 165.168s-66.418 94.774-113.527 128.385c-47.107 33.611-101.258 56.040-158.334 65.583s-115.575 5.953-171.055-10.503c-55.48-16.457-106.478-45.345-149.119-84.468s-75.801-87.45-96.963-141.311c-21.161-53.86-29.766-111.837-25.16-169.522s22.301-113.562 51.74-163.383l-51.41-185.764 185.738 51.305c53.764-31.812 114.553-49.85 176.967-52.513 13.246-47.655 37.279-91.622 70.241-128.499 32.962-36.875 73.97-65.67 119.847-84.157 45.875-18.485 95.39-26.165 144.712-22.444 49.32 3.721 97.122 18.742 139.708 43.901l156.856-43.402-43.404 156.882c29.465 49.709 44.969 106.449 44.875 164.234zM197.646 294.768l-111.222-30.773 30.772 111.225-7.010 10.946c-42.679 66.935-59.143 147.264-46.236 225.59s54.279 149.132 116.178 198.831c61.899 49.699 139.966 74.794 219.232 70.474s154.144-37.75 210.274-93.881c56.134-56.131 89.566-131.011 93.885-210.277 4.319-79.263-20.779-157.331-70.477-219.231-49.701-61.897-120.501-103.272-198.827-116.179s-158.662 3.56-225.594 46.238l-10.975 7.037zM912.977 28.394l-82.553 22.843-11.001-7.165c-33.758-21.869-72.066-35.735-112.002-40.535-39.936-4.802-80.439-0.412-118.419 12.837-37.977 13.246-72.428 35-100.714 63.596-28.289 28.596-49.664 63.275-62.498 101.397 85.178 10.012 164.494 48.44 225.141 109.082 60.647 60.644 99.084 139.957 109.101 225.136 38.119-12.839 72.799-34.217 101.392-62.506 28.591-28.289 50.341-62.734 63.588-100.712s17.636-78.483 12.839-118.416c-4.797-39.933-18.658-78.241-40.524-111.999l-7.192-11.004 22.843-82.553zM352.715 412.501h58.394v-58.394h-58.394v58.394zM440.362 648.126c0.037-8.118-1.636-16.156-4.91-23.584-3.277-7.428-8.079-14.081-14.1-19.53l-68.608-62.805v-71.26h58.394v45.45l49.625 45.424c14.336 13.115 25.172 29.599 31.531 47.957 6.359 18.361 8.040 38.014 4.886 57.186s-11.038 37.256-22.943 52.612c-11.902 15.356-27.448 27.5-45.229 35.333s-37.234 11.11-56.598 9.529c-19.367-1.581-38.030-7.967-54.306-18.58-16.274-10.613-29.643-25.118-38.899-42.202s-14.105-36.209-14.108-55.639h58.394c0.326 15.279 6.622 29.822 17.539 40.511s25.589 16.673 40.871 16.673c15.279 0 29.951-5.984 40.868-16.673s17.214-25.232 17.537-40.511l0.055 0.108z" />
<glyph unicode="&#xe908;" glyph-name="instagram" d="M298.667 896c-70.699 0-134.741-28.715-181.035-74.965s-74.965-110.336-74.965-181.035v-426.667c0-70.699 28.715-134.741 74.965-181.035s110.336-74.965 181.035-74.965h426.667c70.699 0 134.741 28.715 181.035 74.965s74.965 110.336 74.965 181.035v426.667c0 70.699-28.715 134.741-74.965 181.035s-110.336 74.965-181.035 74.965zM298.667 810.667h426.667c47.147 0 89.728-19.072 120.661-50.005s50.005-73.515 50.005-120.661v-426.667c0-47.147-19.072-89.728-50.005-120.661s-73.515-50.005-120.661-50.005h-426.667c-47.147 0-89.728 19.072-120.661 50.005s-50.005 73.515-50.005 120.661v426.667c0 47.147 19.072 89.728 50.005 120.661s73.515 50.005 120.661 50.005zM724.864 459.819c-6.4 41.472-24.363 79.232-50.944 109.525-32.171 36.736-76.971 62.507-128.384 70.144-19.797 3.157-41.387 3.285-63.019 0.085-58.283-8.619-107.563-40.149-140.032-83.925s-48.341-100.139-39.68-158.379 40.149-107.563 83.925-140.032 100.139-48.341 158.379-39.68 107.563 40.149 140.032 83.925 48.341 100.139 39.68 158.379zM640.469 447.275c5.205-34.987-4.267-68.651-23.808-95.019s-49.067-45.184-84.011-50.347-68.651 4.267-95.019 23.808-45.184 49.067-50.347 84.011 4.267 68.651 23.808 95.019 49.067 45.184 84.011 50.347c13.355 1.963 26.24 1.792 37.12 0.085 31.573-4.693 58.283-20.053 77.568-42.069 16-18.261 26.88-41.088 30.72-65.835zM746.667 618.667c23.552 0 42.667 19.115 42.667 42.667s-19.115 42.667-42.667 42.667-42.667-19.115-42.667-42.667 19.115-42.667 42.667-42.667z" />
<glyph unicode="&#xe909;" d="M531.828-56.978c-6.195-0.493-12.459-0.749-18.77-0.749-126.346 0-228.762 102.413-228.762 228.762 0 126.346 102.415 228.762 228.762 228.762 6.311 0 12.576-0.258 18.77-0.749-117.572-9.55-209.992-107.977-209.992-228.011 0-120.039 92.422-218.465 209.992-228.014z" />
<glyph unicode="&#xe90a;" glyph-name="hamburger" horiz-adv-x="1306" d="M33.537 855.842c0 39.003 31.618 70.621 70.621 70.621h1129.932c39.004 0 70.621-31.618 70.621-70.621s-31.617-70.621-70.621-70.621h-1129.932c-39.003 0-70.621 31.618-70.621 70.621zM33.537 432.117c0 39.004 31.618 70.621 70.621 70.621h1129.932c39.004 0 70.621-31.617 70.621-70.621s-31.617-70.621-70.621-70.621h-1129.932c-39.003 0-70.621 31.617-70.621 70.621zM33.537 8.393c0 39.004 31.618 70.621 70.621 70.621h1129.932c39.004 0 70.621-31.617 70.621-70.621s-31.617-70.621-70.621-70.621h-1129.932c-39.003 0-70.621 31.617-70.621 70.621z" />
<glyph unicode="&#xe90b;" glyph-name="x" d="M225.835 652.502l225.835-225.835-225.835-225.835c-16.683-16.683-16.683-43.691 0-60.331s43.691-16.683 60.331 0l225.835 225.835 225.835-225.835c16.683-16.683 43.691-16.683 60.331 0s16.683 43.691 0 60.331l-225.835 225.835 225.835 225.835c16.683 16.683 16.683 43.691 0 60.331s-43.691 16.683-60.331 0l-225.835-225.835-225.835 225.835c-16.683 16.683-43.691 16.683-60.331 0s-16.683-43.691 0-60.331z" />
<glyph unicode="&#xe90c;" d="M514.884 15.282c-87.326 0-156.515 68.109-156.515 155.438s67.328 157.567 154.654 157.567c5.425 0 10.788 0.85 16.077 0.313 79.808-8.080 142.298-75.66 142.298-157.563 0-81.983-62.614-149.616-142.535-157.588-5.209-0.518-8.634 1.834-13.979 1.834z" />
<glyph unicode="&#xe90d;" d="M531.809 13.763c-6.148-0.726-12.411-1.102-18.77-1.102-87.328 0-158.373 71.047-158.373 158.373s71.047 158.373 158.373 158.373c6.358 0 12.624-0.375 18.77-1.102-78.507-9.315-139.603-76.301-139.603-157.271 0-80.972 61.097-147.957 139.603-157.271z" />
<glyph unicode="&#xe90e;" glyph-name="facebook" d="M725.333 810.667v-85.333h-85.333c-23.552 0-44.928-9.6-60.331-25.003s-25.003-36.779-25.003-60.331v-128c0-23.552 19.115-42.667 42.667-42.667h116.011l-21.333-85.333h-94.677c-23.552 0-42.667-19.115-42.667-42.667v-298.667h-85.333v298.667c0 23.552-19.115 42.667-42.667 42.667h-85.333v85.333h85.333c23.552 0 42.667 19.115 42.667 42.667v128c0 47.147 19.072 89.728 50.005 120.661s73.515 50.005 120.661 50.005zM768 896h-128c-70.699 0-134.741-28.715-181.035-74.965s-74.965-110.336-74.965-181.035v-85.333h-85.333c-23.552 0-42.667-19.115-42.667-42.667v-170.667c0-23.552 19.115-42.667 42.667-42.667h85.333v-298.667c0-23.552 19.115-42.667 42.667-42.667h170.667c23.552 0 42.667 19.115 42.667 42.667v298.667h85.333c19.883 0 36.608 13.611 41.387 32.299l42.667 170.667c5.717 22.869-8.192 46.037-31.061 51.755-3.541 0.896-7.125 1.323-10.325 1.28h-128v85.333h128c23.552 0 42.667 19.115 42.667 42.667v170.667c0 23.552-19.115 42.667-42.667 42.667z" />
<glyph unicode="&#xe90f;" glyph-name="twitter" d="M888.875 714.155c-7.936-10.325-16.683-20.267-26.283-29.696-9.941-9.899-14.805-24.192-11.861-38.741 1.579-7.765 2.56-17.237 2.603-27.051 0-224.256-103.637-382.763-247.893-464.981-112.939-64.384-253.355-83.413-393.472-47.787 53.12 15.403 104.96 39.296 153.301 72.107 6.272 4.224 11.648 10.368 15.019 17.963 9.557 21.547-0.128 46.763-21.675 56.32-118.357 52.608-176.213 125.056-203.477 195.968-17.792 46.251-23.296 93.781-22.187 137.685 0.896 34.603 5.888 66.56 11.861 93.099 16.811-14.635 34.261-30.123 52.693-44.288 87.509-67.285 197.291-105.771 315.52-102.699 23.168 0.64 41.643 19.499 41.643 42.667v43.136c-0.085 7.637 0.384 15.232 1.451 22.741 4.821 34.389 21.504 66.944 49.579 91.349 30.933 26.923 69.803 38.741 107.776 36.096s74.795-19.755 101.717-50.688c10.752-12.203 27.691-17.749 44.075-12.971 9.856 2.859 19.755 6.101 29.653 9.728zM956.757 845.526c-31.573-22.272-64.981-39.509-97.579-51.413-39.723 35.669-89.216 55.552-139.776 59.093-59.648 4.139-121.003-14.464-169.685-56.832-44.203-38.443-70.485-89.941-78.080-143.872-1.579-11.307-2.347-22.699-2.304-34.133-82.005 6.059-157.568 36.267-219.733 84.053-33.067 25.429-62.379 55.851-86.784 90.283-13.653 19.2-40.277 23.765-59.477 10.112-6.571-4.651-11.392-10.795-14.293-17.451 0 0-5.632-12.757-12.16-32.427-4.779-14.379-10.283-33.067-15.232-55.040-6.955-30.805-12.885-68.352-13.909-109.696-1.323-52.352 5.12-111.445 27.819-170.496 29.141-75.733 83.883-148.395 176.939-205.781-66.944-30.976-138.453-44.331-207.915-41.259-23.552 1.024-43.477-17.195-44.501-40.747-0.725-16.597 8.107-31.403 21.888-39.168 209.28-116.267 444.843-114.261 625.749-11.136 172.373 98.176 290.944 285.867 290.944 539.051-0.043 7.125-0.341 14.080-0.981 20.864 42.923 47.573 71.509 103.637 85.163 161.323 5.419 22.912-8.789 45.909-31.701 51.328-12.373 2.944-24.747 0.128-34.432-6.656z" />
<glyph unicode="&#xe910;" glyph-name="chevron-down" d="M225.835 524.502l256-256c16.683-16.683 43.691-16.683 60.331 0l256 256c16.683 16.683 16.683 43.691 0 60.331s-43.691 16.683-60.331 0l-225.835-225.835-225.835 225.835c-16.683 16.683-43.691 16.683-60.331 0s-16.683-43.691 0-60.331z" />
<glyph unicode="&#xe911;" glyph-name="chevron-up" d="M798.165 328.832l-256 256c-16.683 16.683-43.691 16.683-60.331 0l-256-256c-16.683-16.683-16.683-43.691 0-60.331s43.691-16.683 60.331 0l225.835 225.835 225.835-225.835c16.683-16.683 43.691-16.683 60.331 0s16.683 43.691 0 60.331z" />
<glyph unicode="&#xe912;" d="M511.573 84.397c-19.621 0-29.869 6.042-44.868 15.844-7.145 4.669-9.15 14.245-4.483 21.386 4.669 7.145 14.245 9.152 21.388 4.485 12.931-8.45 17.088-10.871 28.407-10.807 13.405 0.089 21.333 10.987 23.029 21.077 0.857 5.105 1.335 17.518-12.711 22.479-3.14 1.107-6.148 2.112-9.011 3.072-14.734 4.93-27.46 9.186-37.042 19.991-9.847 11.099-14.059 26.233-11.268 40.488 2.801 14.289 12.112 25.985 26.22 32.933 25.039 12.332 51.063-1.921 58.977-8.456 6.58-5.431 7.511-15.172 2.080-21.752-5.418-6.569-15.127-7.507-21.707-2.118-0.41 0.303-14.34 10.194-25.691 4.604-5.408-2.662-8.622-6.417-9.552-11.158-0.935-4.781 0.618-10.157 4.060-14.033 4.102-4.627 12.335-7.382 23.73-11.194 3.019-1.009 6.186-2.071 9.495-3.239 23.956-8.459 37.181-31.26 32.901-56.739-4.602-27.415-26.523-46.687-53.301-46.865-0.22 0.002-0.436 0.002-0.652 0.002z" />
<glyph unicode="&#xe913;" d="M513.009 60.721c-8.537 0-15.453 6.918-15.453 15.451v23.69c0 8.533 6.916 15.453 15.453 15.453 8.535 0 15.451-6.92 15.451-15.453v-23.69c0-8.533-6.916-15.451-15.451-15.451z" />
<glyph unicode="&#xe914;" d="M513.009 229.435c-8.537 0-15.453 6.918-15.453 15.451v20.829c0 8.533 6.916 15.451 15.453 15.451 8.535 0 15.451-6.918 15.451-15.451v-20.829c0-8.533-6.916-15.451-15.451-15.451z" />
<glyph unicode="&#xe915;" d="M588.169 517.966l-60.496 82.466-6.22 4.36c-4.117 5.611-12.497 5.611-16.613 0l-62.593-84.764c-2.996-4.085-0.082-9.836 4.983-9.836l15.051-2.061h21.453l2.061-32.394c0-5.689 4.614-10.301 10.301-10.301l16.477-2.061h19.684c5.689 0 10.303 4.614 10.303 10.303v34.454h40.628c5.059 0 7.974 5.753 4.982 9.836z" />
<glyph unicode="&#xe916;" d="M527.646 600.438l-65.396-92.302h-19.181c-5.048 0-7.974 5.748-4.966 9.829l66.714 90.963c4.1 5.604 12.485 5.604 16.606 0l6.224-8.49z" />
<glyph unicode="&#xe917;" d="M512.548 501.948v-38.569h-18.542c-5.689 0-10.303 4.614-10.303 10.303v34.448h22.665c3.413 0 6.18-2.769 6.18-6.182z" />
<glyph unicode="&#xe918;" d="M773.958 413.396l-2.255 102.252-2.596 7.14c-0.154 6.958-7.018 11.765-13.608 9.529l-99.895-33.534c-4.796-1.625-5.708-8.012-1.561-10.915l11.148-10.322 17.575-12.305-16.892-27.718c-3.264-4.661-2.131-11.084 2.53-14.347l12.315-11.139 16.124-11.291c4.661-3.264 11.084-2.13 14.347 2.53l19.763 28.224 33.278-23.302c4.147-2.905 9.836 0.137 9.726 5.198z" />
<glyph unicode="&#xe919;" d="M771.669 515.658l-106.511-38.102-15.713 11.002c-4.134 2.894-3.235 9.282 1.57 10.898l106.824 36.248c6.573 2.24 13.441-2.571 13.602-9.525l0.228-10.521z" />
<glyph unicode="&#xe91a;" d="M702.815 443.652l-22.12-31.594-15.189 10.634c-4.661 3.265-5.793 9.688-2.53 14.349l19.758 28.219 18.567-12.999c2.793-1.957 3.474-5.812 1.515-8.609z" />
<glyph unicode="&#xe91b;" d="M375.903 497.033l-96.855 32.853-7.597 0.006c-6.592 2.234-13.456-2.571-13.608-9.529l-2.657-105.341c-0.112-5.063 5.577-8.103 9.724-5.2l13.513 6.944 17.575 12.307 20.27-25.355c3.264-4.659 9.686-5.793 14.347-2.53l14.677 7.763 16.124 11.291c4.661 3.264 5.793 9.688 2.53 14.349l-19.761 28.223 33.28 23.304c4.145 2.903 3.233 9.29-1.563 10.915z" />
<glyph unicode="&#xe91c;" d="M279.082 529.899l-0.626-113.118-15.713-11.002c-4.136-2.896-9.829 0.135-9.703 5.202l2.473 112.778c0.144 6.942 7.014 11.751 13.604 9.525l9.965-3.385z" />
<glyph unicode="&#xe91d;" d="M323.174 440.568l22.12-31.596-15.187-10.634c-4.661-3.264-11.086-2.131-14.349 2.53l-19.758 28.219 18.565 12.997c2.797 1.961 6.65 1.28 8.609-1.515z" />
<glyph unicode="&#xe91e;" d="M649.197 817.561c0 70.068-52.922 127.773-120.972 135.33-4.989 0.554-10.058-0.328-15.195-0.328-75.203 0-130.363-59.797-130.363-135.001s55.161-134.466 130.363-134.466c5.082 0 10.1-1.426 15.038-0.884 68.128 7.485 121.13 65.227 121.13 135.347z" />
<glyph unicode="&#xe91f;" d="M531.598 682.646c-6.057-0.825-12.258-1.257-18.542-1.257-75.201 0-136.167 60.964-136.167 136.167s60.966 136.167 136.167 136.167c6.284 0 12.485-0.433 18.542-1.257-66.423-9.045-117.623-65.992-117.623-134.91s51.2-125.866 117.623-134.91z" />
<glyph unicode="&#xe920;" d="M513.035 750.598c36.98 0 66.96 29.979 66.96 66.96s-29.98 66.96-66.96 66.96c-36.982 0-66.962-29.979-66.962-66.96s29.98-66.96 66.962-66.96z" />
<glyph unicode="&#xe921;" horiz-adv-x="529" d="M478.193 960h-429.935c-26.652 0-48.258-21.606-48.258-48.258v-921.29c0-26.652 21.606-48.258 48.258-48.258h429.935c26.652 0 48.258 21.606 48.258 48.258v921.29c0 26.652-21.606 48.258-48.258 48.258z" />
<glyph unicode="&#xe922;" horiz-adv-x="529" d="M443.096 960h-394.838c-26.652 0-48.258-21.606-48.258-48.258v-921.29c0-26.652 21.606-48.258 48.258-48.258h394.838c26.652 0 48.258 21.606 48.258 48.258v921.29c0 26.652-21.606 48.258-48.258 48.258z" />
<glyph unicode="&#xe923;" horiz-adv-x="529" d="M333.419 960h-140.387c-19.383 0-35.097-15.713-35.097-35.097s15.713-35.097 35.097-35.097h140.387c19.383 0 35.097 15.713 35.097 35.097s-15.713 35.097-35.097 35.097z" />
<glyph unicode="&#xe924;" horiz-adv-x="529" d="M315.871-5.161h-105.29c-4.654 0-9.117 1.848-12.409 5.14s-5.14 7.754-5.14 12.409c0 4.654 1.848 9.117 5.14 12.409s7.754 5.14 12.409 5.14h105.29c4.654 0 9.117-1.848 12.409-5.14s5.14-7.754 5.14-12.409c0-4.654-1.848-9.117-5.14-12.409s-7.754-5.14-12.409-5.14z" />
<glyph unicode="&#xe925;" horiz-adv-x="529" d="M403.613-5.161h-17.548c-4.654 0-9.117 1.848-12.409 5.14s-5.14 7.754-5.14 12.409c0 4.654 1.848 9.117 5.14 12.409s7.754 5.14 12.409 5.14h17.548c4.654 0 9.117-1.848 12.409-5.14s5.14-7.754 5.14-12.409c0-4.654-1.848-9.117-5.14-12.409s-7.754-5.14-12.409-5.14z" />
<glyph unicode="&#xe926;" horiz-adv-x="529" d="M142.803 730.099c10.783 10.783 24.967 17.497 40.142 19 15.175 1.501 30.401-2.299 43.089-10.759l36.438-24.29 36.435 24.29c12.688 8.46 27.914 12.26 43.089 10.759 15.175-1.503 29.361-8.217 40.142-19 11.751-11.751 18.633-27.504 19.273-44.111 0.638-16.605-5.016-32.841-15.831-45.459l-123.108-143.628-123.109 143.628c-10.815 12.618-16.469 28.852-15.831 45.459s7.52 32.36 19.271 44.111z" />
<glyph unicode="&#xe927;" horiz-adv-x="529" d="M491.355 592.658h-129.419c-3.746 0-7.391 1.199-10.407 3.42l-33.868 24.943-42.707-43.059c-1.696-1.713-3.728-3.055-5.967-3.947-2.24-0.89-4.639-1.311-7.049-1.235-2.408 0.078-4.776 0.649-6.955 1.681s-4.121 2.501-5.706 4.317l-55.035 63.029-57.241-78.229c-1.629-2.226-3.761-4.038-6.221-5.287s-5.181-1.899-7.94-1.899h-122.839v35.097h113.935l64.93 88.744c1.554 2.124 3.566 3.871 5.886 5.112 2.321 1.242 4.89 1.944 7.52 2.058s5.25-0.367 7.668-1.402c2.42-1.037 4.573-2.605 6.304-4.587l57.070-65.358 40.098 40.43c2.966 2.989 6.907 4.811 11.104 5.137 4.198 0.325 8.372-0.87 11.763-3.366l41.422-30.509h123.655v-35.090z" />
<glyph unicode="&#xe928;" horiz-adv-x="529" d="M157.935 135.226v157.935h70.194v-157.935h-70.194z" />
<glyph unicode="&#xe929;" horiz-adv-x="529" d="M228.129 135.226v210.581h70.194v-210.581h-70.194z" />
<glyph unicode="&#xe92a;" horiz-adv-x="529" d="M298.323 135.226v184.259h70.194v-184.259h-70.194z" />
<glyph unicode="&#xe92b;" horiz-adv-x="529" d="M263.226 416c9.692 0 17.548 7.857 17.548 17.548s-7.857 17.548-17.548 17.548c-9.692 0-17.548-7.857-17.548-17.548s7.857-17.548 17.548-17.548z" />
<glyph unicode="&#xe92c;" horiz-adv-x="529" d="M193.032 416c9.692 0 17.548 7.857 17.548 17.548s-7.857 17.548-17.548 17.548c-9.692 0-17.548-7.857-17.548-17.548s7.857-17.548 17.548-17.548z" />
<glyph unicode="&#xe92d;" horiz-adv-x="529" d="M333.419 416c9.692 0 17.548 7.857 17.548 17.548s-7.857 17.548-17.548 17.548c-9.692 0-17.548-7.857-17.548-17.548s7.857-17.548 17.548-17.548z" />
<glyph unicode="&#xe92e;" horiz-adv-x="529" d="M368.516 258.065h70.194v-122.839h-70.194v122.839z" />
<glyph unicode="&#xe92f;" horiz-adv-x="529" d="M87.742 275.613h70.194v-140.387h-70.194v140.387z" />
<glyph unicode="&#xe930;" horiz-adv-x="529" d="M456.258 117.677h-403.613c-4.654 0-9.118 1.848-12.409 5.14s-5.14 7.754-5.14 12.409c0 4.654 1.849 9.117 5.14 12.409s7.754 5.14 12.409 5.14h403.613c4.654 0 9.117-1.848 12.409-5.14s5.14-7.754 5.14-12.409c0-4.654-1.848-9.117-5.14-12.409s-7.754-5.14-12.409-5.14z" />
<glyph unicode="&#xe931;" horiz-adv-x="529" d="M315.871 29.935h-105.29c-4.654 0-9.117-1.848-12.409-5.14s-5.14-7.754-5.14-12.409c0-4.654 1.848-9.117 5.14-12.409s7.754-5.14 12.409-5.14h105.29c4.654 0 9.117 1.848 12.409 5.14s5.14 7.754 5.14 12.409c0 4.654-1.848 9.117-5.14 12.409s-7.754 5.14-12.409 5.14z" />
<glyph unicode="&#xe932;" horiz-adv-x="529" d="M403.613 29.935h-17.548c-4.654 0-9.117-1.848-12.409-5.14s-5.14-7.754-5.14-12.409c0-4.654 1.848-9.117 5.14-12.409s7.754-5.14 12.409-5.14h17.548c4.654 0 9.117 1.848 12.409 5.14s5.14 7.754 5.14 12.409c0 4.654-1.848 9.117-5.14 12.409s-7.754 5.14-12.409 5.14z" />
<glyph unicode="&#xe933;" horiz-adv-x="529" d="M263.226 416c9.692 0 17.548 7.857 17.548 17.548s-7.857 17.548-17.548 17.548c-9.692 0-17.548-7.857-17.548-17.548s7.857-17.548 17.548-17.548z" />
<glyph unicode="&#xe934;" horiz-adv-x="529" d="M193.032 416c9.692 0 17.548 7.857 17.548 17.548s-7.857 17.548-17.548 17.548c-9.692 0-17.548-7.857-17.548-17.548s7.857-17.548 17.548-17.548z" />
<glyph unicode="&#xe935;" horiz-adv-x="529" d="M333.419 416c9.692 0 17.548 7.857 17.548 17.548s-7.857 17.548-17.548 17.548c-9.692 0-17.548-7.857-17.548-17.548s7.857-17.548 17.548-17.548z" />
<glyph unicode="&#xe936;" d="M260.571-54.857c138.859 0 251.429 112.569 251.429 251.429s-112.569 251.429-251.429 251.429c-138.86 0-251.429-112.569-251.429-251.429s112.568-251.429 251.429-251.429z" />
<glyph unicode="&#xe937;" d="M412.433 240.152c-5.027-25.815 9.891-49.113 32.017-57.324-7.041-95.376-86.66-170.637-183.879-170.637-101.912 0-184.381 82.469-184.381 184.381s82.469 184.381 184.381 184.381c76.1 0 141.639-46.263 169.63-112.138-8.884-7.039-15.421-16.93-17.769-28.662z" />
<glyph unicode="&#xe938;" d="M411.429 917.333v-234.667c0-18.439-15.084-33.524-33.524-33.524h-67.048v-33.524c0-9.387-3.855-18.103-10.057-24.137-6.034-6.203-14.75-10.057-24.137-10.057-10.225 0-19.78 4.525-26.317 12.237l-73.584 55.481h-134.095c-18.438 0-33.524 15.084-33.524 33.524v234.667c0 18.438 15.086 33.524 33.524 33.524h335.238c18.439 0 33.524-15.086 33.524-33.524z" />
<glyph unicode="&#xe939;" d="M294.095 867.048c10.391-10.225 16.762-24.472 16.762-40.396 0-16.93-7.543-32.854-20.617-43.749l-79.955-66.712-79.954 66.712c-13.074 10.895-20.617 26.819-20.617 43.749 0 31.68 25.478 57.158 57.158 57.158h3.017c15.086 0 29.668-6.034 40.396-16.762 10.728 10.728 25.311 16.762 40.397 16.762h3.016c15.926 0 30.171-6.37 40.397-16.762z" />
<glyph unicode="&#xe93a;" d="M894.362 147.137c9.723-25.98-3.521-54.979-29.333-64.7-7.375-2.682-14.582-3.689-22.126-3.018-19.946 1.677-36.708 16.26-43.749 35.033l-87.832 234.498c-1.675-0.334-3.352-0.67-5.196-0.839-11.064-1.341-22.628-0.67-34.697 3.187-34.531 10.893-57.159 44.083-58.668 79.952h167.451l2.011 1.846c5.030-5.030 9.053-11.064 11.566-17.769l100.571-268.19z" />
<glyph unicode="&#xe93b;" d="M612.71 431.243c1.509-35.872 24.137-69.059 58.668-79.955 12.069-3.855 23.635-4.525 34.697-3.184l-9.218-106.942c-3.018-34.697-32.015-61.347-66.714-61.347h-168.455c-6.034 0-11.903 1.173-17.267 3.016-22.126 8.214-37.042 31.512-32.015 57.327 2.348 11.732 8.884 21.623 17.769 28.662 9.218 7.375 21.119 11.566 33.524 11.566h121.356c8.716 0 16.091 6.705 16.762 15.421l10.728 138.789c0-1.173 0-2.18 0.166-3.352z" />
<glyph unicode="&#xe93c;" d="M964.571 615.619h-96.885c-5.866 0-11.23 3.016-14.246 7.877l-10.728 12.571c-43.247 50.79-106.606 80.123-173.488 80.123-30.169 0-59.672-6.034-86.994-17.264-27.321-11.398-52.463-27.994-73.918-49.449l-28.999-28.996c-21.96-21.96-34.363-51.795-34.363-82.973v-70.734c0-24.305 16.425-46.765 40.229-51.293 32.183-6.2 60.343 18.271 60.343 49.281v76.937c0 4.359 1.843 8.716 4.862 11.735l45.424 45.424h16.762v-164.267c0-1.173 0-2.18 0.168-3.352h167.451l2.011 1.843c-0.67 0.67-1.341 1.341-2.011 2.011v119.345c22.126-24.808 53.47-39.39 87.496-39.39h94.874c24.305 0 46.765 16.425 51.29 40.229 6.203 32.183-18.269 60.343-49.279 60.343z" />
<glyph unicode="&#xe93d;" d="M696.381 716.19c64.802 0 117.333 52.532 117.333 117.333s-52.531 117.333-117.333 117.333c-64.802 0-117.333-52.532-117.333-117.333s52.531-117.333 117.333-117.333z" />
<glyph unicode="&#xe93e;" d="M277.836 175.923l-45.843 122.244-63.611-84.831h-41.905v-33.524h58.667l36.96 49.262 54.728-145.944 45.373 113.445h55.701v33.524h-78.395l-21.675-54.174z" />
<glyph unicode="&#xe93f;" horiz-adv-x="939" d="M763.369 241.749l-31.081 450.667c-4.834 70.083-36.083 135.721-87.439 183.656s-118.989 74.595-189.237 74.595h-36.941c-70.251 0.002-137.886-26.657-189.242-74.592s-82.608-113.574-87.441-183.658l-31.081-450.667c-2.617-37.939 2.597-76.011 15.317-111.849s32.675-68.676 58.624-96.476c25.949-27.799 57.338-49.965 92.216-65.12 34.88-15.153 72.501-22.974 110.53-22.972h99.098c38.027 0 75.648 7.821 110.526 22.976 34.876 15.155 66.266 37.321 92.213 65.12s45.901 60.638 58.62 96.474c12.721 35.838 17.935 73.907 15.317 111.846zM437.141 430.667c-30.852 0-61.013 9.15-86.669 26.291-25.653 17.141-45.649 41.504-57.455 70.010-11.808 28.506-14.897 59.872-8.877 90.133 6.018 30.261 20.877 58.057 42.692 79.874 21.818 21.818 49.615 36.674 79.874 42.694 30.261 6.018 61.628 2.929 90.133-8.877 28.506-11.808 52.87-31.804 70.012-57.457s26.289-55.814 26.289-86.669c0-41.374-16.435-81.054-45.69-110.308-29.257-29.257-68.937-45.692-110.31-45.692z" />
<glyph unicode="&#xe940;" horiz-adv-x="939" d="M435.245 742.645c-22.054-0.228-43.806-5.156-63.808-14.451-34.948 24.352-58.349 68.358-58.349 118.473-0.29 34.189 11.142 67.445 32.393 94.228 23.846 6.5 48.452 9.786 73.169 9.772h15.772c-47.795 0-86.667-46.648-86.667-104s38.871-104 86.667-104c0.282 0 0.542 0 0.823-0.021z" />
<glyph unicode="&#xe941;" horiz-adv-x="939" d="M434.417 812c19.145 0 34.667 15.521 34.667 34.667s-15.522 34.667-34.667 34.667c-19.147 0-34.667-15.521-34.667-34.667s15.52-34.667 34.667-34.667z" />
<glyph unicode="&#xe942;" horiz-adv-x="939" d="M816 628.207v79.793c0 13.792-5.478 27.019-15.23 36.77s-22.978 15.23-36.77 15.23c-13.792 0-27.019-5.479-36.77-15.23s-15.23-22.978-15.23-36.77v-79.793c-31.076-13.491-52-38.673-52-67.541 0-43.076 46.562-77.999 104-77.999s104 34.923 104 77.999c0 28.868-20.924 54.050-52 67.541z" />
<glyph unicode="&#xe943;" horiz-adv-x="939" d="M729.333 430.667h69.333c36.777 0 72.047-14.609 98.052-40.614s40.614-61.276 40.614-98.052v-277.333c0-18.389-7.305-36.023-20.307-49.026s-30.637-20.307-49.026-20.307h-208c-18.389 0-36.023 7.305-49.026 20.307s-20.307 30.637-20.307 49.026v277.333c0 36.777 14.609 72.047 40.614 98.052s61.276 40.614 98.052 40.614z" />
<glyph unicode="&#xe944;" horiz-adv-x="939" d="M868 292h-52c-4.597 0-9.007 1.826-12.256 5.077-3.251 3.249-5.077 7.659-5.077 12.256s1.826 9.007 5.077 12.256c3.249 3.251 7.659 5.077 12.256 5.077h52c4.597 0 9.007-1.826 12.256-5.077 3.251-3.249 5.077-7.659 5.077-12.256s-1.826-9.007-5.077-12.256c-3.249-3.251-7.659-5.077-12.256-5.077z" />
<glyph unicode="&#xe945;" horiz-adv-x="939" d="M868 222.667h-52c-4.597 0-9.007 1.826-12.256 5.077-3.251 3.249-5.077 7.659-5.077 12.256s1.826 9.007 5.077 12.256c3.249 3.251 7.659 5.077 12.256 5.077h52c4.597 0 9.007-1.826 12.256-5.077 3.251-3.249 5.077-7.659 5.077-12.256s-1.826-9.007-5.077-12.256c-3.249-3.251-7.659-5.077-12.256-5.077z" />
<glyph unicode="&#xe946;" horiz-adv-x="939" d="M868 153.333h-52c-4.597 0-9.007 1.826-12.256 5.077-3.251 3.249-5.077 7.659-5.077 12.256s1.826 9.007 5.077 12.256c3.249 3.251 7.659 5.077 12.256 5.077h52c4.597 0 9.007-1.826 12.256-5.077 3.251-3.249 5.077-7.659 5.077-12.256s-1.826-9.007-5.077-12.256c-3.249-3.251-7.659-5.077-12.256-5.077z" />
<glyph unicode="&#xe947;" horiz-adv-x="939" d="M868 84h-52c-4.597 0-9.007 1.826-12.256 5.077-3.251 3.249-5.077 7.659-5.077 12.256s1.826 9.007 5.077 12.256c3.249 3.251 7.659 5.077 12.256 5.077h52c4.597 0 9.007-1.826 12.256-5.077 3.251-3.249 5.077-7.659 5.077-12.256s-1.826-9.007-5.077-12.256c-3.249-3.251-7.659-5.077-12.256-5.077z" />
<glyph unicode="&#xe948;" horiz-adv-x="939" d="M868 14.667h-52c-4.597 0-9.007 1.826-12.256 5.077-3.251 3.249-5.077 7.659-5.077 12.256s1.826 9.007 5.077 12.256c3.249 3.251 7.659 5.077 12.256 5.077h52c4.597 0 9.007-1.826 12.256-5.077 3.251-3.249 5.077-7.659 5.077-12.256s-1.826-9.007-5.077-12.256c-3.249-3.251-7.659-5.077-12.256-5.077z" />
<glyph unicode="&#xe949;" horiz-adv-x="939" d="M372.207 84h79.793c13.792 0 27.019 5.478 36.77 15.23s15.23 22.978 15.23 36.77c0 13.792-5.478 27.019-15.23 36.77s-22.978 15.23-36.77 15.23h-79.793c-13.491 31.076-38.673 52-67.541 52-43.076 0-77.999-46.562-77.999-104s34.923-104 77.999-104c28.868 0 54.050 20.924 67.541 52z" />
<glyph unicode="&#xe94a;" horiz-adv-x="939" d="M140 274.667c-27.425 0-54.235-8.132-77.039-23.369s-40.577-36.894-51.072-62.234c-10.495-25.338-13.241-53.218-7.891-80.117s18.557-51.607 37.95-70.999c19.393-19.392 44.101-32.599 71-37.95s54.78-2.605 80.118 7.891c25.339 10.496 46.994 28.269 62.233 51.072 15.236 22.803 23.369 49.613 23.369 77.039 0 36.777-14.609 72.047-40.614 98.052s-61.276 40.614-98.052 40.614zM140 66.667c-13.713 0-27.118 4.066-38.519 11.684s-20.288 18.447-25.536 31.117c-5.248 12.668-6.621 26.609-3.945 40.058 2.675 13.451 9.279 25.805 18.975 35.501s22.050 16.301 35.5 18.976c13.449 2.675 27.39 1.301 40.059-3.947s23.497-14.133 31.116-25.536c7.618-11.403 11.685-24.806 11.685-38.519 0-18.389-7.305-36.023-20.307-49.026s-30.638-20.307-49.026-20.307z" />
<glyph unicode="&#xe94b;" horiz-adv-x="939" d="M278.667 292c0 19.147-15.52 34.667-34.667 34.667s-34.667-15.52-34.667-34.667v-312c0-19.147 15.52-34.667 34.667-34.667s34.667 15.52 34.667 34.667v312z" />
<glyph unicode="&#xe94c;" horiz-adv-x="939" d="M868 552h-208c-19.147 0-34.667-15.52-34.667-34.667v-69.333c0-19.147 15.52-34.667 34.667-34.667h208c19.147 0 34.667 15.52 34.667 34.667v69.333c0 19.147-15.52 34.667-34.667 34.667z" />
<glyph unicode="&#xe94d;" horiz-adv-x="1084" d="M550.588 755.058c-17.513 0-31.765 14.252-31.765 31.765 0 17.534-14.231 31.765-31.764 31.765h-296.472c-17.533 0-31.764-14.23-31.764-31.765 0-17.513-14.252-31.765-31.765-31.765-17.534 0-31.765-14.231-31.765-31.765v-296.469c0-17.534 14.231-31.765 31.765-31.765 17.513 0 31.765-14.252 31.765-31.765 0-17.534 14.231-31.765 31.764-31.765h296.472c17.533 0 31.764 14.231 31.764 31.765 0 17.513 14.252 31.765 31.765 31.765 17.534 0 31.765 14.231 31.765 31.765v296.469c0 17.534-14.231 31.765-31.765 31.765z" />
<glyph unicode="&#xe94e;" horiz-adv-x="1084" d="M582.353 723.293v-296.469c0-17.534-14.231-31.765-31.765-31.765-17.513 0-31.765-14.252-31.765-31.765 0-17.534-14.231-31.765-31.764-31.765h-148.236v487.059h148.236c17.533 0 31.764-14.23 31.764-31.765 0-17.513 14.252-31.765 31.765-31.765 17.534 0 31.765-14.231 31.765-31.765z" />
<glyph unicode="&#xe94f;" horiz-adv-x="1084" d="M1055.88 284.308l-287.81 287.809c-5.972 5.993-13.743 9.085-21.6 9.276-8.406 0.232-16.899-2.86-23.314-9.276l-287.789-287.809c-12.408-12.389-12.408-32.506 0-44.916l287.789-287.788c6.204-6.204 14.336-9.296 22.468-9.296 0.276 0 0.572 0 0.846 0.021 7.858 0.19 15.628 3.281 21.6 9.275l287.81 287.788c12.387 12.41 12.387 32.527 0 44.916z" />
<glyph unicode="&#xe950;" horiz-adv-x="1084" d="M1055.88 239.39l-287.809-287.789c-5.972-5.992-13.744-9.083-21.6-9.275v639.063c7.856-0.19 15.628-3.283 21.6-9.275l287.809-287.81c12.389-12.387 12.389-32.506 0-44.914z" />
<glyph unicode="&#xe951;" horiz-adv-x="1084" d="M1084.235 617.412c0-185.654-152.005-336.706-338.824-336.706-185.654 0-336.706 151.052-336.706 336.706s151.052 336.706 336.706 336.706c186.818 0 338.824-151.052 338.824-336.706z" />
<glyph unicode="&#xe952;" horiz-adv-x="1084" d="M1084.235 617.412c0-185.654-152.005-336.706-338.824-336.706v673.412c186.818 0 338.824-151.052 338.824-336.706z" />
<glyph unicode="&#xe953;" horiz-adv-x="1084" d="M891.79 600.626c-2.766-4.488 6.831 5.624-122.993-124.201-12.323-12.365-32.313-12.424-44.747-0.169-131.189 129.181-122.187 119.763-125.005 124.369-17.64 28.652-18.72 63.572-2.921 93.41 30.274 57.187 104.474 64.131 149.295 22.405 44.872 41.775 119.060 34.706 149.293-22.405 15.798-29.838 14.718-64.757-2.921-93.41z" />
<glyph unicode="&#xe954;" horiz-adv-x="1084" d="M891.784 600.629c-2.765-4.486 6.832 5.624-122.993-124.199-6.745-6.767-16.087-9.784-23.379-9.297v249.311c17.789 16.56 41.612 26.704 67.765 26.704 73.359 0 116.539-80.907 78.607-142.518z" />
<glyph unicode="&#xe955;" horiz-adv-x="1084" d="M675.53 278.588c0-185.654-151.052-336.706-336.706-336.706-186.818 0-338.824 151.052-338.824 336.706s152.005 336.706 338.824 336.706c185.654 0 336.706-151.052 336.706-336.706z" />
<glyph unicode="&#xe956;" horiz-adv-x="1084" d="M675.53 278.588c0-185.654-151.052-336.706-336.706-336.706v673.413c185.654 0 336.706-151.052 336.706-336.706z" />
<glyph unicode="&#xe957;" horiz-adv-x="1084" d="M237.176 331.528c-17.483 0-31.765 14.303-31.765 31.765 0 19.102 16.753 33.489 34.878 31.618 18.040-1.851 30.232-17.915 28.503-34.751-1.736-16.726-15.742-28.631-31.616-28.631z" />
<glyph unicode="&#xe958;" horiz-adv-x="1084" d="M440.471 331.528c-17.399 0-31.765 14.213-31.765 31.765 0 19.081 16.736 33.491 34.878 31.618 18.068-1.854 30.226-17.94 28.482-34.73-1.282-15.694-15.003-28.652-31.595-28.652z" />
<glyph unicode="&#xe959;" horiz-adv-x="1084" d="M458.094 167.457c-72.425-48.298-166.064-48.325-238.532 0-14.59 9.719-18.551 29.457-8.809 44.047 9.72 14.59 29.457 18.549 44.047 8.809 50.955-34 117.022-34.053 168.056 0 14.59 9.74 34.306 5.781 44.047-8.809s5.781-34.328-8.809-44.047z" />
<glyph unicode="&#xe95a;" horiz-adv-x="1084" d="M458.089 167.457c-36.233-24.163-77.738-36.233-119.266-36.233v63.571c29.265 0 58.511 8.492 84.028 25.519 14.59 9.742 34.306 5.781 44.047-8.809s5.781-34.328-8.809-44.047z" />
<glyph unicode="&#xe95b;" horiz-adv-x="995" d="M875.75 820.592c7.136 27.086-23.627 48.634-46.627 32.194l-120.269-85.936c-23.906-17.080-11.516-54.625 17.534-54.625 6.061 0 12.178 1.823 17.484 5.613l120.27 85.936c9.054 6.47 4.677 8.716 4.677-2.399v-192.752c0-16.634 13.485-30.119 30.117-30.119s30.117 13.485 30.117 30.119v192.752c0.001 28.246-35.407 40.789-53.304 19.217z" />
<glyph unicode="&#xe95c;" horiz-adv-x="995" d="M462.038 842.489l143.399-119.487c5.632-4.69 12.466-6.981 19.266-6.981 28.040 0 40.916 35.242 19.295 53.255l-143.399 119.487c-12.778 10.646-31.77 8.919-42.418-3.859-10.647-12.776-8.921-31.766 3.858-42.416z" />
<glyph unicode="&#xe95d;" horiz-adv-x="995" d="M869.745 479.685c-22.44-19.225-87.122-74.672-127.298-109.107-19.343-16.51-48.818-3.085-49.673 21.725-19.497-15.54-48.832-1.747-48.832 23.572v224.878c0 16.625 13.493 30.119 30.119 30.119 16.624 0 30.117-13.493 30.117-30.119v-223.633c92.852 79.585 51.358 44.006 126.373 108.303 12.629 10.822 31.643 9.356 42.465-3.272 10.822-12.627 9.356-31.643-3.272-42.465z" />
<glyph unicode="&#xe95e;" horiz-adv-x="995" d="M830.489 445.99c-3.485-3.002 9.175 7.864-87.984-75.415-19.298-16.47-48.817-3.12-49.674 21.725-19.497-15.541-48.832-1.747-48.832 23.572v25.198c25.152 8.492 54.114 6.186 78.387-8.392 5.661 4.839 9.898 8.473 15.519 13.312h92.583z" />
<glyph unicode="&#xe95f;" horiz-adv-x="995" d="M609.82 381.743h-128.502c-16.633 0-30.117-13.485-30.117-30.117s13.485-30.117 30.117-30.117h128.502c16.633 0 30.117 13.485 30.117 30.117s-13.485 30.117-30.117 30.117z" />
<glyph unicode="&#xe960;" horiz-adv-x="995" d="M708.914 289.776l120.269-85.936c5.309-3.793 11.423-5.613 17.484-5.613 29.064 0 41.433 37.55 17.535 54.625l-120.27 85.936c-22.777 16.273-53.811-4.92-46.626-32.193-17.886 21.558-53.307 9.055-53.307-19.216v-192.752c0-28.246 35.408-40.789 53.307-19.215-7.221-27.401 23.944-48.402 46.626-32.195l120.27 85.936c13.533 9.669 16.665 28.482 6.995 42.015-9.672 13.536-28.485 16.669-42.016 6.995-131.348-93.851-122.293-86.825-126.002-91.329 1.51 5.641 1.056-10.762 1.056 200.547 0.001 11.11-4.371 8.862 4.678 2.395z" />
<glyph unicode="&#xe961;" horiz-adv-x="995" d="M768.481 351.624c0-51.83-42.129-94.369-94.369-94.369-64.202 0-110.108 63.298-89.449 124.486 19.558 57.836 87.195 81.288 137.718 50.94 28.034-16.735 46.1-47.148 46.1-81.057z" />
<glyph unicode="&#xe962;" horiz-adv-x="995" d="M674.083-64.001c52.117 0 94.367 42.25 94.367 94.369s-42.25 94.369-94.367 94.369c-52.119 0-94.369-42.25-94.369-94.369s42.25-94.369 94.369-94.369z" />
<glyph unicode="&#xe963;" horiz-adv-x="995" d="M898.94 96.628c52.117 0 94.367 42.25 94.367 94.369 0 52.117-42.25 94.367-94.367 94.367-52.119 0-94.369-42.25-94.369-94.367 0-52.119 42.25-94.369 94.369-94.369z" />
<glyph unicode="&#xe964;" horiz-adv-x="995" d="M898.94 450.006c52.117 0 94.367 42.25 94.367 94.369s-42.25 94.369-94.367 94.369c-52.119 0-94.369-42.25-94.369-94.369s42.25-94.369 94.369-94.369z" />
<glyph unicode="&#xe965;" horiz-adv-x="995" d="M898.94 771.264c52.117 0 94.367 42.25 94.367 94.368s-42.25 94.368-94.367 94.368c-52.119 0-94.369-42.25-94.369-94.368s42.25-94.368 94.369-94.368z" />
<glyph unicode="&#xe966;" horiz-adv-x="995" d="M674.083 610.635c52.117 0 94.367 42.25 94.367 94.369 0 52.117-42.25 94.367-94.367 94.367-52.119 0-94.369-42.25-94.369-94.367 0-52.119 42.25-94.369 94.369-94.369z" />
<glyph unicode="&#xe967;" horiz-adv-x="995" d="M511.444 909.722v-923.445c0-9.838-4.819-19.074-12.891-24.696-78.652-54.872-187.423-17.253-216.987 72.663-65.615 10.723-116.313 66.38-119.346 134.245-64.528 22.058-106.475 88.507-94.489 159.001-87.664 55.132-89.142 184.958 0 241.020-11.993 70.532 29.995 136.954 94.489 159.001 3.033 67.865 53.731 123.522 119.346 134.244 29.58 89.963 138.369 127.514 216.987 72.664 8.072-5.622 12.891-14.858 12.891-24.696z" />
<glyph unicode="&#xe968;" horiz-adv-x="995" d="M511.437 445.993v-459.715c0-9.839-4.819-19.074-12.891-24.696-78.652-54.873-187.423-17.254-216.987 72.663-65.616 10.721-116.313 66.379-119.346 134.243-64.528 22.058-106.476 88.509-94.489 159.001-40.418 25.42-65.596 69.432-66.239 118.503h509.951z" />
<glyph unicode="&#xe969;" horiz-adv-x="995" d="M511.428 528.311c0-154.238 1.279-147.604-3.173-156.551-12.809-56.301-63.206-98.444-123.32-98.444-16.625 0-30.119 13.492-30.119 30.117s13.493 30.117 30.119 30.117c36.542 0 66.259 29.716 66.259 66.259 0 36.507-29.716 66.259-66.259 66.259-16.625 0-30.119 13.493-30.119 30.117s13.493 30.117 30.119 30.117c24.275 0 46.983-6.886 66.259-18.793v20.802c0 63.106-51.34 114.447-114.447 114.447-16.625 0-30.119 13.493-30.119 30.117s13.493 30.119 30.119 30.119c96.316 0 174.681-78.367 174.681-174.683z" />
<glyph unicode="&#xe96a;" horiz-adv-x="995" d="M511.469 445.993c0-66.303 1.052-65.736-3.173-74.23-12.81-56.3-63.207-98.444-123.322-98.444-16.624 0-30.117 13.493-30.117 30.117 0 16.625 13.493 30.117 30.117 30.117 58.605 0 88.084 70.821 47.446 112.44h79.048z" />
<glyph unicode="&#xe96b;" d="M712.906 598.029c-20.682-72-62.111-207.799-83.077-264.577 84.136-18.887 174.256-25.226 301.972 26.235l29.918 238.342h-248.813z" />
<glyph unicode="&#xe96c;" d="M629.829 333.452c30.154-6.77 61.087-11.906 94.234-13.368 59.791 81.78 83.263 181.821 70.396 277.944h-81.553c-20.682-71.999-62.111-207.799-83.077-264.577z" />
<glyph unicode="&#xe96d;" d="M639.201 343.442c-18.17-1.643-378.751-30.087-418.229-32.118l34.529-275.086c7.19-57.274 55.886-100.241 113.61-100.241h408.415c57.723 0 106.42 42.967 113.61 100.241l40.599 323.448c-122.691-42.059-211.25-34.458-292.533-16.244z" />
<glyph unicode="&#xe96e;" d="M411.736 36.239c-7.87 62.692 32.051 121.96 93.421 136.994 65.975 16.162 128.5 50.008 180.038 101.546 17.187 17.186 32.382 35.606 45.637 54.958-0.474 0.031-0.952 0.070-1.426 0.104-31.767 2.058-61.446 7.158-90.204 13.602-18.17-1.641-378.751-30.088-418.229-32.117l34.529-275.086c7.19-57.274 55.887-100.241 113.61-100.241h156.235c-57.724 0-106.42 42.967-113.61 100.241z" />
<glyph unicode="&#xe96f;" d="M924.9 751.451h-287.014c23.255-66.816 50.018-131.692 79.224-198.163h207.792c54.723 0 99.082 44.36 99.082 99.082-0.001 54.72-44.361 99.081-99.084 99.081z" />
<glyph unicode="&#xe970;" d="M717.11 553.273h80.656c-1.17 68.991-20.783 137.721-58.857 198.163h-101.023c23.255-66.815 50.018-131.691 79.224-198.163z" />
<glyph unicode="&#xe971;" d="M340.803 786.637l-167.433-167.433-138.693 138.693c-46.236 46.237-46.236 121.199 0 167.433 46.236 46.236 121.198 46.236 167.431 0l138.695-138.693z" />
<glyph unicode="&#xe972;" d="M413.304 242.793c167.857 0 303.932 136.075 303.932 303.932s-136.075 303.932-303.932 303.932c-167.857 0-303.933-136.075-303.933-303.932s136.076-303.932 303.933-303.932z" />
<glyph unicode="&#xe973;" d="M413.254 338.213c115.159 0 208.513 93.354 208.513 208.511s-93.354 208.511-208.513 208.511c-115.158 0-208.511-93.354-208.511-208.511s93.354-208.511 208.511-208.511z" />
<glyph unicode="&#xe974;" d="M359.329 399.277c-81.427 81.43-81.427 213.451 0 294.88 28.741 28.739 63.824 47.328 100.721 55.782-67.643 15.496-141.546-3.094-194.234-55.782-81.43-81.43-81.43-213.453 0-294.88 52.688-52.689 126.556-71.286 194.197-55.79-36.898 8.452-71.943 27.050-100.684 55.79z" />
<glyph unicode="&#xe975;" d="M410.255 41.552c32.867 0 59.512 21.217 59.512 47.391s-26.644 47.392-59.512 47.392-59.512-21.217-59.512-47.392c0-26.173 26.644-47.391 59.512-47.391z" />
<glyph unicode="&#xe976;" d="M732.826 41.273c32.869 0 59.513 21.219 59.513 47.392s-26.644 47.392-59.513 47.392c-32.867 0-59.512-21.219-59.512-47.392s26.644-47.392 59.512-47.392z" />
<glyph unicode="&#xe977;" d="M444.943 119.834c-8.296 0.006-15.006 6.725-15 15.012l0.019 23.751c0.006 8.281 6.719 14.988 14.999 14.988 8.297-0.006 15.007-6.726 15-15.012l-0.018-23.754c-0.007-8.278-6.722-14.986-15-14.986z" />
<glyph unicode="&#xe978;" d="M698.143 119.591c-8.294 0.006-15.006 6.725-15 15.012l0.018 23.751c0.007 8.281 6.72 14.988 15 14.988 8.294-0.006 15.006-6.726 15-15.012l-0.018-23.752c-0.006-8.28-6.722-14.987-15-14.987z" />
<glyph unicode="&#xe979;" d="M604.899 109.136c-0.013 0-66.769 0.057-66.769 0.057-8.284 0.007-14.994 6.728-14.987 15.013 0.009 8.28 6.722 14.986 15 14.986 0.015 0 66.771-0.056 66.771-0.056 8.284-0.007 14.994-6.728 14.986-15.013-0.007-8.281-6.723-14.987-15-14.987z" />
</font>
</defs>
</svg>
